<svg xmlns="http://www.w3.org/2000/svg" xmlns:xlink="http://www.w3.org/1999/xlink" viewBox="0 0 24 24">
    <path fill="none" d="M0 0h24v24H0z"/>
    <path d="M22 12c0 5.5-4.5 10-10 10S2 17.5 2 12 6.5 2 12 2s10 4.5 10 10" fill-rule="evenodd" clip-rule="evenodd" fill="#304ffe"/>
    <path d="M13.7 9.4v7.5C13.7 20 11 20 10 20h-.8c-.1 0-.1 0-.1-.1v-1.8s0-.1.1-.1c1.6 0 1.8-.8 1.8-1.4V9.5s0-.1.1-.1h2.6zm.3-3V7c0 .7-.3 1.1-1 1.4l-2.1.8V7.5L14 6.4zm.9-2.4v.6c0 .7-.3 1.1-1 1.4l-3 1.1V5.5l4-1.5z" fill="#fff"/>
</svg>
